<svg version="1.1" id="Layer_1" xmlns="http://www.w3.org/2000/svg" xmlns:xlink="http://www.w3.org/1999/xlink" x="0px" y="0px"
	 width="100%" viewBox="0 0 1280 1280" enable-background="new 0 0 1280 1280" xml:space="preserve">
<path fill="#000000" opacity="1.000000" stroke="none" 
	d="
M742.000000,1281.000000 
	C496.166656,1281.000000 250.833328,1280.989990 5.500040,1281.093384 
	C1.750821,1281.094971 0.906191,1280.249023 0.907064,1276.500000 
	C1.005783,852.833313 1.005783,429.166656 0.907064,5.500021 
	C0.906191,1.750944 1.750944,0.906189 5.500021,0.907062 
	C429.166656,1.005797 852.833313,1.005797 1276.500000,0.907062 
	C1280.249023,0.906189 1281.093872,1.750943 1281.093018,5.500021 
	C1280.994263,429.166656 1280.994263,852.833313 1281.093018,1276.500000 
	C1281.093872,1280.249023 1280.249268,1281.096069 1276.500000,1281.093750 
	C1098.500000,1280.986328 920.500000,1281.000000 742.000000,1281.000000 
z"/>
<path fill="#FFFFFF" opacity="1.000000" stroke="none" 
	d="
M1120.000000,594.019531 
	C1120.000000,608.180969 1120.109131,621.847168 1119.969482,635.510864 
	C1119.828735,649.270935 1117.048706,662.802490 1116.071533,676.464966 
	C1115.568359,683.498962 1114.825684,690.543030 1112.722534,697.008057 
	C1110.095703,705.083069 1110.764526,713.982849 1107.468750,721.259033 
	C1105.010254,726.687012 1106.726807,732.322266 1103.956543,737.032715 
	C1100.255615,743.325806 1100.559448,750.705933 1097.766602,757.392883 
	C1095.344116,763.193054 1093.956543,769.976562 1091.561279,775.828491 
	C1089.131958,781.763733 1088.347290,788.312012 1084.413696,793.980469 
	C1081.878784,797.633179 1081.438110,803.106140 1079.136475,807.562439 
	C1076.309082,813.036011 1075.434814,819.508606 1070.575439,823.953064 
	C1069.576660,824.866577 1070.109985,826.151672 1070.005859,827.273438 
	C1069.813477,829.346863 1069.897095,831.549194 1067.087524,832.052246 
	C1066.701416,832.121399 1066.139160,832.529968 1066.071655,832.864746 
	C1063.960938,843.328613 1056.921509,851.327576 1051.969971,860.312561 
	C1048.809204,866.048279 1044.472168,871.388672 1041.073730,876.964600 
	C1035.396973,886.278503 1028.820801,894.926514 1022.868896,904.011719 
	C1020.445740,907.710571 1016.457581,910.555359 1013.881470,914.046143 
	C1009.876465,919.472961 1005.635925,924.678528 1001.021667,929.490417 
	C995.954712,934.774536 991.078430,940.263367 985.449707,945.061218 
	C981.880554,948.103516 978.994629,952.027344 975.378845,955.145813 
	C969.733704,960.014709 964.799866,965.627441 959.253357,970.625549 
	C956.988708,972.666260 954.011230,974.555359 952.789612,978.014465 
	C952.218628,979.631409 949.414307,980.442200 947.805176,981.273560 
	C941.113281,984.730896 937.000305,991.156311 931.028748,995.024414 
	C925.955200,998.310852 921.041626,1001.911865 915.972839,1005.212402 
	C911.625305,1008.043457 907.549377,1011.422607 903.177246,1014.312195 
	C899.316162,1016.863953 895.376892,1019.261536 891.310364,1021.513123 
	C887.260315,1023.755432 883.001709,1025.800659 879.381042,1028.931396 
	C876.996338,1030.993530 873.629639,1032.838989 871.056519,1033.558594 
	C865.801270,1035.028198 861.644226,1038.418457 856.822998,1040.457397 
	C853.639648,1041.803833 849.187439,1042.857422 846.894714,1046.470947 
	C846.679504,1046.810181 846.022888,1047.083496 845.601746,1047.045898 
	C839.955688,1046.540894 836.148438,1051.494629 830.870728,1051.982300 
	C827.499939,1052.293701 826.133179,1055.693726 822.516235,1056.452759 
	C815.667847,1057.890137 808.862305,1060.391724 802.759338,1064.121216 
	C800.697998,1065.380859 798.543213,1064.497314 796.569336,1065.181885 
	C790.535889,1067.274658 783.721069,1068.219849 778.404419,1070.671021 
	C772.464355,1073.409546 766.062561,1072.293213 760.945984,1075.207520 
	C754.987427,1078.601318 748.223572,1077.221558 742.693909,1079.419312 
	C734.730225,1082.584595 726.079529,1080.722046 718.999451,1083.473389 
	C705.516357,1088.713135 691.800171,1084.787842 678.701538,1087.460938 
	C671.369629,1088.957275 664.067932,1089.674927 656.748962,1090.547119 
	C648.012146,1091.588257 639.166260,1091.398560 630.426331,1090.547485 
	C627.990173,1090.310303 625.528687,1090.082520 623.092834,1090.056274 
	C620.241943,1090.025391 617.446167,1090.062378 615.320557,1087.829102 
	C614.048096,1086.492310 612.517761,1087.043213 611.104614,1087.029907 
	C604.106079,1086.964111 597.085693,1087.333740 590.113586,1086.898804 
	C584.111938,1086.524292 577.715820,1087.691040 572.373657,1083.269409 
	C571.362305,1082.432373 569.145264,1083.051270 567.484436,1083.000000 
	C560.886780,1082.796631 554.235596,1083.549438 548.245056,1079.279297 
	C546.144531,1077.782104 542.743164,1078.803833 539.976746,1078.674194 
	C532.473083,1078.322754 526.269653,1072.408813 518.428772,1073.961304 
	C518.008545,1074.044434 517.455017,1073.793823 517.048096,1073.554688 
	C508.494751,1068.528442 498.013824,1068.904053 489.610138,1064.543213 
	C484.244324,1061.758667 477.499603,1062.767944 473.287079,1057.815552 
	C471.850281,1056.126465 469.826538,1057.463867 468.148193,1056.664917 
	C462.723450,1054.082886 457.025085,1052.014282 451.820129,1049.063477 
	C449.869690,1047.957642 447.762299,1048.833008 446.285431,1047.633301 
	C442.115173,1044.245728 436.408234,1043.869629 432.380615,1040.073242 
	C429.983948,1037.814209 426.159943,1036.585938 423.460938,1035.719604 
	C416.297058,1033.419800 411.236176,1027.657837 404.004456,1025.502075 
	C401.861206,1024.863281 398.654114,1022.476746 396.332275,1020.553345 
	C391.346558,1016.423157 385.696533,1013.163940 380.422699,1009.654785 
	C373.643707,1005.144165 366.011505,1001.263000 360.412048,995.671082 
	C354.560730,989.827637 346.931122,986.766907 341.320312,980.495789 
	C336.765533,975.404968 331.632507,970.348450 326.087036,966.027100 
	C316.978943,958.929565 308.244873,951.254395 300.681122,942.680725 
	C294.548767,935.729553 288.391937,928.872375 281.946411,922.198730 
	C276.045990,916.089417 270.519440,909.411865 265.992767,902.248657 
	C262.382751,896.536072 257.643829,891.666992 254.406113,885.605042 
	C253.251297,883.442871 252.205307,879.408936 248.423523,878.642212 
	C247.918564,878.539856 247.376953,877.354858 247.297119,876.622742 
	C246.744537,871.556091 241.902817,868.969971 240.352158,864.666809 
	C238.711044,860.112854 235.229950,856.758179 233.412781,852.145996 
	C231.957901,848.453308 229.877823,843.958557 226.541245,840.585999 
	C224.228546,838.248291 222.731232,834.476440 221.613358,831.529907 
	C218.629929,823.666199 212.502472,817.076660 211.982544,808.255005 
	C206.777527,805.849548 209.507629,799.318115 205.698074,796.138855 
	C205.005280,795.560791 204.395950,794.530823 204.299881,793.649292 
	C203.836044,789.393066 201.201202,785.852661 200.224442,781.974121 
	C198.426605,774.835327 195.961899,767.664795 193.332230,761.132385 
	C191.031387,755.416748 192.429367,748.323303 187.321274,743.716919 
	C187.026489,743.451111 187.010437,742.782288 187.008011,742.300293 
	C186.956650,732.068604 180.858963,723.177124 180.741501,712.805359 
	C180.690216,708.276917 177.638977,703.830811 177.424561,698.959595 
	C177.389069,698.153198 176.915161,697.318726 177.036469,696.560059 
	C178.326019,688.493774 174.073166,681.358887 173.228745,673.647217 
	C172.802048,669.750549 172.639267,665.818848 172.233765,661.926941 
	C171.502548,654.908447 170.516937,647.843994 170.946884,640.695984 
	C171.473923,631.933533 169.273132,623.240479 169.991714,614.443848 
	C170.963684,602.545593 170.158005,590.524658 171.297501,578.719666 
	C172.360306,567.709290 172.510864,556.420837 176.547363,545.715027 
	C178.307999,541.045410 177.100250,535.647095 177.769028,530.553162 
	C178.484833,525.101074 181.918381,520.527344 181.327484,514.604126 
	C180.553009,506.840637 187.623825,500.353333 186.013443,492.165314 
	C192.088455,486.576172 188.196304,477.306580 193.687302,471.342010 
	C194.679382,470.264404 195.406281,467.880096 195.024765,465.803894 
	C194.876801,464.998596 194.648453,463.775330 195.066971,463.365173 
	C199.574860,458.947205 197.631973,451.712646 202.127182,447.379028 
	C203.158371,446.384949 202.639313,445.176849 203.055588,444.200104 
	C204.171585,441.581451 202.868134,437.724548 206.877914,436.521606 
	C207.270798,436.403748 207.846008,435.755798 207.791306,435.452087 
	C206.735672,429.588837 211.224503,425.592621 212.935547,420.694580 
	C214.641953,415.809753 217.626709,411.098511 219.316879,406.379028 
	C221.129730,401.317078 223.974533,396.662842 226.514908,392.460907 
	C228.907257,388.503784 228.499985,383.234680 232.981552,379.960297 
	C235.098373,378.413666 235.829865,374.164734 237.899002,371.359955 
	C241.684296,366.228851 244.448578,360.322388 248.399460,355.342926 
	C251.244553,351.757111 252.156662,347.170044 255.854599,343.974548 
	C260.244080,340.181396 261.337646,333.403137 265.412048,329.664948 
	C274.997223,320.870819 281.473663,309.547882 290.768860,300.564606 
	C298.186279,293.396149 305.052094,285.618530 312.244263,278.227661 
	C315.587311,274.792236 318.773834,270.677307 323.605835,268.395416 
	C325.386688,267.554382 328.204254,264.882660 328.660522,263.056976 
	C329.604431,259.279846 333.243164,258.208954 335.184296,256.446960 
	C339.355835,252.660477 343.512085,248.354172 349.184601,245.967117 
	C353.155640,244.296051 356.017761,240.088516 359.120209,236.922684 
	C362.048157,233.934967 366.060547,233.514481 369.024536,230.321075 
	C373.125610,225.902649 378.966278,222.879059 384.499512,219.866882 
	C391.236053,216.199692 397.846161,212.237030 404.181030,207.918213 
	C408.165985,205.201462 412.445251,202.420868 416.580231,200.724503 
	C420.732697,199.020950 424.554413,196.568710 428.496033,194.662094 
	C432.671967,192.642136 437.422485,191.261200 441.012299,187.996490 
	C441.339233,187.699173 441.581726,187.136002 441.935760,187.066879 
	C450.379333,185.418274 457.578857,180.858810 465.255341,177.365219 
	C473.864868,173.447037 482.885132,170.394592 491.752930,167.159119 
	C498.226349,164.797272 505.061066,162.826965 511.657684,160.682129 
	C519.661621,158.079742 528.284668,157.646637 535.832520,153.625900 
	C538.470642,152.220596 541.678223,153.359299 543.995300,152.692886 
	C554.560669,149.654236 565.492126,148.926254 576.082458,146.639252 
	C585.370239,144.633514 594.463196,143.859528 603.774536,144.029724 
	C619.779785,144.322250 635.564209,139.521240 651.501587,141.186508 
	C668.402161,142.952438 685.314636,143.393448 702.222656,144.396866 
	C712.180664,144.987839 722.426636,146.947479 732.201904,149.300613 
	C748.052429,153.116180 764.083679,156.296494 779.718750,161.123840 
	C787.933716,163.660202 795.976562,166.743134 804.118530,169.426041 
	C811.397644,171.824646 818.986267,174.463318 825.639282,178.266403 
	C833.286438,182.637756 841.646118,185.279480 849.442810,189.221893 
	C856.428101,192.754013 863.510803,196.551407 870.855042,199.633469 
	C877.447327,202.399948 882.973206,207.682022 889.541321,210.540649 
	C893.751099,212.372879 897.033875,215.487000 901.303284,217.126465 
	C904.587891,218.387772 907.447266,220.756790 910.052795,223.287552 
	C912.697815,225.856705 916.228210,227.333023 919.260559,229.232025 
	C922.138916,231.034668 924.418457,233.552353 927.405640,235.284531 
	C936.271179,240.425247 942.941895,248.646454 951.315308,254.427673 
	C962.194885,261.939117 970.474426,271.912079 979.630920,281.090546 
	C985.976440,287.451294 992.746826,293.416626 998.762817,300.069183 
	C1003.974731,305.832550 1009.462341,311.435791 1013.620239,318.107880 
	C1016.270752,322.361298 1020.455811,325.299377 1023.251465,329.540100 
	C1026.716431,334.796173 1031.421509,339.246063 1034.786255,344.554199 
	C1040.135010,352.991913 1045.817993,361.223907 1050.984009,369.751678 
	C1054.782593,376.022003 1057.964355,382.707306 1062.013916,388.853302 
	C1064.843384,393.147614 1066.593994,398.016998 1068.620850,402.598022 
	C1070.408203,406.637787 1072.622803,410.526947 1074.459351,414.530853 
	C1076.769043,419.565887 1077.936279,425.245117 1081.800659,429.567657 
	C1082.492798,430.341949 1083.100342,431.725220 1082.913818,432.661377 
	C1082.013550,437.179565 1086.295654,439.659668 1086.937622,443.425720 
	C1087.994995,449.629120 1090.530029,455.742249 1092.799683,461.100616 
	C1095.891846,468.400574 1097.948242,476.093628 1100.221558,483.448914 
	C1102.376221,490.420685 1105.708374,497.328949 1105.551025,505.424316 
	C1105.462280,509.991333 1108.450684,515.253784 1109.382080,520.533325 
	C1111.646973,533.372070 1115.011963,545.957458 1116.213623,559.060486 
	C1117.267212,570.549194 1119.968750,581.890991 1120.000000,594.019531 
z"/>
<path fill="#000000" opacity="1.000000" stroke="none" 
	d="
M494.787476,1006.000916 
	C489.336334,1007.483948 486.371521,1002.945740 482.503662,1001.398376 
	C477.022156,999.205383 471.134399,997.585571 466.072662,993.953003 
	C463.291290,991.956970 459.445862,990.438171 456.274078,989.504822 
	C449.046173,987.377930 443.036804,982.977966 436.970886,979.360840 
	C433.293304,977.167908 428.610077,975.982605 425.191772,972.379639 
	C423.132660,970.209167 419.593842,967.938416 415.883026,966.744263 
	C412.855957,965.770081 410.540497,962.639587 407.514282,960.877441 
	C399.645203,956.295410 393.166931,949.777832 385.472626,944.819824 
	C379.617554,941.046936 375.250793,935.041565 369.789825,930.555359 
	C365.460541,926.998779 360.932800,923.682922 357.112762,919.569824 
	C353.045349,915.190369 348.504517,911.203613 344.167480,907.217834 
	C338.273132,901.800964 333.511505,895.524353 328.471191,889.543579 
	C325.144775,885.596497 321.715485,881.295288 318.298279,877.671265 
	C313.342377,872.415466 310.687012,865.731995 305.794586,860.856506 
	C301.808441,856.884094 300.231567,851.237427 296.601807,847.868652 
	C291.759460,843.374268 291.993927,835.519897 285.335785,832.807312 
	C286.762329,827.332031 280.050812,825.428040 279.982269,820.582642 
	C279.937592,817.425232 276.631805,816.262573 275.488861,813.249084 
	C273.766785,808.708740 272.072968,803.613342 268.480865,799.652832 
	C266.068146,796.992676 264.685455,792.809875 263.987732,789.858154 
	C262.631653,784.121521 259.319733,779.279419 257.367920,774.012329 
	C255.529434,769.051025 253.576721,763.562378 251.820435,758.581848 
	C249.471375,751.920410 245.344559,745.611511 245.069321,738.277466 
	C244.958923,735.335815 244.524155,732.769653 242.246262,730.756714 
	C241.873459,730.427368 241.193237,730.002197 241.237549,729.709412 
	C242.336884,722.444153 238.516510,716.229492 237.089752,709.509949 
	C236.031021,704.523743 236.623474,699.362915 233.472641,694.628662 
	C231.852051,692.193604 231.961456,688.283081 232.090271,685.071472 
	C232.415070,676.974243 231.229080,669.212830 228.295990,661.679871 
	C228.007309,660.938477 228.001297,660.051270 228.013138,659.233887 
	C228.289825,640.137268 225.589447,621.024475 227.254135,601.999695 
	C228.203186,591.153320 226.166977,580.102844 229.116211,569.527832 
	C231.866455,559.666199 230.072571,548.981262 233.461517,539.744995 
	C236.492996,531.483032 234.746475,522.243591 239.922241,514.708252 
	C241.086517,513.013245 241.372040,510.723022 240.985641,508.563934 
	C240.561508,506.194092 240.867859,503.203461 242.184937,502.042480 
	C245.832993,498.826813 244.519485,494.408844 245.846649,490.705719 
	C246.452805,489.014282 246.442398,487.354156 247.911926,485.818695 
	C249.716782,483.932922 250.306534,481.276581 250.031677,478.506195 
	C249.787781,476.047760 249.545975,473.476105 252.825027,472.531311 
	C253.313171,472.390625 254.005142,471.451782 253.914047,471.031464 
	C252.457657,464.312653 257.203705,459.210785 259.516968,453.951141 
	C261.365601,449.747864 261.633545,444.446259 265.424927,441.002716 
	C266.204193,440.294952 266.730774,439.074982 266.935303,438.007111 
	C268.093262,431.960754 272.608734,427.532074 274.643860,422.123169 
	C276.124939,418.186798 279.008545,415.228485 280.245056,411.156464 
	C281.390900,407.383026 284.436981,404.184570 286.659515,400.741516 
	C287.264801,399.803833 288.164703,398.980042 288.506805,397.961975 
	C290.044312,393.386688 293.119690,389.927612 295.969116,386.158264 
	C297.970520,383.510742 300.061401,380.670074 301.649048,377.672363 
	C304.505371,372.279144 308.647034,367.789642 311.630493,362.412262 
	C314.478790,357.278473 319.047119,352.759888 323.727356,349.072601 
	C328.882294,345.011322 331.247803,339.011658 335.734222,334.579163 
	C340.910065,329.465515 346.214996,324.363129 350.582794,318.589355 
	C353.985565,314.091156 359.012878,311.610107 362.523804,307.029327 
	C364.987946,303.814270 369.270538,300.542572 373.399109,298.142090 
	C379.090851,294.832611 383.606995,290.100922 388.103363,285.405090 
	C390.004944,283.419128 392.667297,283.149261 394.878540,281.872833 
	C400.633270,278.550964 404.354156,272.255981 411.368225,270.839294 
	C413.437805,270.421295 413.996063,268.008057 415.686615,266.719238 
	C421.560028,262.241425 428.352295,259.402557 434.556335,255.635620 
	C437.892883,253.609802 441.753296,251.416031 445.104584,249.430084 
	C449.081238,247.073532 454.199982,246.314529 457.292480,242.395859 
	C457.650818,241.941727 458.412048,241.518692 458.962189,241.547363 
	C464.253540,241.823120 467.577911,237.401260 472.287567,236.051712 
	C477.213470,234.640198 481.721283,231.778030 486.366791,229.453705 
	C491.434753,226.918015 497.049957,225.317825 502.576935,223.893021 
	C512.071838,221.445389 520.900024,217.071869 530.277771,214.464767 
	C540.778809,211.545364 551.014832,207.287460 562.152527,206.957764 
	C563.392151,206.921066 564.867126,206.649765 565.804077,205.929428 
	C571.163513,201.808838 577.359192,203.124313 583.325134,203.019958 
	C587.771423,202.942200 592.009094,202.056274 595.757935,199.675903 
	C597.230225,198.741013 598.624573,199.031204 600.042480,199.029343 
	C629.708313,198.990479 659.374268,199.013901 689.040100,198.969376 
	C691.063965,198.966339 692.908875,199.260315 694.663452,200.268463 
	C698.272888,202.342361 702.223145,203.384766 706.320129,202.931091 
	C710.659058,202.450592 714.929626,204.739349 719.254761,203.034058 
	C719.642883,202.881042 720.260925,203.073593 720.684509,203.283081 
	C732.748840,209.250519 746.451050,209.504837 758.834656,214.156311 
	C766.285889,216.955078 774.504578,217.644012 781.278992,222.132996 
	C783.153503,223.375153 785.119324,222.528961 786.925049,223.397705 
	C792.818726,226.233109 798.959412,228.864029 805.097900,230.653671 
	C810.604736,232.259155 815.461548,235.051483 820.426636,237.353394 
	C824.659851,239.315964 829.268555,240.817963 833.284729,243.564392 
	C836.923889,246.052994 841.565735,247.012817 845.005005,250.000565 
	C848.529724,253.062546 853.963135,252.952271 856.774048,257.197601 
	C857.069885,257.644440 857.903015,257.730103 858.480774,257.996582 
	C865.562866,261.262543 871.967346,265.481934 878.178040,270.261993 
	C881.142578,272.543732 884.039612,275.876617 888.567688,276.114197 
	C890.781555,276.230316 891.414856,279.106384 893.218323,280.492981 
	C899.506897,285.327881 906.222107,289.626678 912.252075,294.925323 
	C918.321106,300.258240 924.085327,306.007874 930.518433,310.992035 
	C935.558838,314.897156 940.345947,319.338074 944.428406,324.223755 
	C951.249451,332.386810 959.681213,339.103790 965.913208,347.659088 
	C970.980164,354.615051 976.831360,360.968109 981.491882,368.298920 
	C982.974854,370.631592 985.269958,373.414124 987.667236,375.660675 
	C989.903870,377.756775 990.165344,381.747131 992.926025,384.178436 
	C996.753967,387.549652 998.042725,392.759735 1000.799500,396.948120 
	C1002.637146,399.739960 1004.329407,403.555695 1006.322021,406.141266 
	C1009.163696,409.828461 1009.346619,414.918579 1013.255310,417.769196 
	C1013.787354,418.157196 1014.677734,418.773590 1014.613831,419.150482 
	C1013.721191,424.410828 1018.388428,427.279510 1020.154541,431.342010 
	C1022.018982,435.630524 1022.719482,440.720520 1026.523193,444.217041 
	C1027.570435,445.179688 1028.386353,446.921692 1028.002808,448.715393 
	C1027.591553,450.638153 1028.470215,452.294189 1029.380981,453.799500 
	C1032.228882,458.506287 1035.016235,463.515656 1035.960938,468.718903 
	C1037.066162,474.806824 1042.594482,479.474396 1041.078125,486.176361 
	C1046.658203,491.246185 1043.778198,499.631714 1048.481689,505.131195 
	C1049.274414,506.058044 1048.854614,507.985626 1049.083130,509.436981 
	C1050.601807,519.081726 1052.710327,528.821838 1055.509155,537.935547 
	C1059.589111,551.220642 1057.624878,564.980225 1061.559937,578.200439 
	C1063.515991,584.772461 1063.326660,592.517578 1063.088867,599.833069 
	C1062.742310,610.488220 1063.158936,621.166077 1062.956177,631.828552 
	C1062.745483,642.909302 1062.678223,653.975403 1059.261475,664.792786 
	C1057.700317,669.735352 1058.792480,675.242310 1058.346191,680.503540 
	C1057.852661,686.320862 1055.003906,691.285645 1054.392700,696.922668 
	C1054.215942,698.551514 1054.056519,700.187805 1054.025146,701.816406 
	C1053.953003,705.571045 1054.535645,709.430603 1051.300781,712.413452 
	C1050.813843,712.862366 1050.812256,713.937500 1050.753784,714.735291 
	C1050.316772,720.694885 1048.191406,726.197693 1045.770508,731.521667 
	C1044.849854,733.546387 1045.181030,735.377075 1045.031738,737.292847 
	C1044.847168,739.660889 1045.711914,742.381531 1042.366333,743.381592 
	C1042.079102,743.467407 1041.805542,744.240417 1041.840820,744.668213 
	C1042.356689,750.911987 1037.685303,755.653076 1036.990845,761.541077 
	C1036.706055,763.955933 1036.241455,766.332764 1034.381348,768.128906 
	C1033.045532,769.418701 1031.952515,771.006958 1032.077759,772.798157 
	C1032.270264,775.552429 1031.444580,777.616455 1029.273682,779.233215 
	C1028.881592,779.525269 1028.250732,779.969055 1028.282959,780.286987 
	C1028.729980,784.710388 1025.802002,787.761963 1024.207520,791.413940 
	C1022.878052,794.458862 1023.186768,798.186096 1019.972595,800.427246 
	C1018.711914,801.306213 1018.962463,802.798462 1019.008545,804.117920 
	C1019.068970,805.847046 1019.005859,807.430603 1016.907532,808.046265 
	C1016.324097,808.217407 1015.379211,808.843750 1015.412964,809.179443 
	C1015.957153,814.586731 1009.822998,817.049805 1009.784180,822.434509 
	C1009.766724,824.856934 1006.755615,828.046570 1005.518494,829.008606 
	C1001.728455,831.955750 1002.445984,837.335938 998.099243,839.860474 
	C996.188721,840.970093 995.101990,844.610107 993.879028,847.050598 
	C992.068848,850.662964 988.639221,852.787720 987.063416,856.408508 
	C983.266052,865.133545 974.670898,870.545898 971.046143,879.479004 
	C970.157288,881.669739 967.638428,883.067200 965.966187,884.763672 
	C960.715027,890.091248 956.003601,895.869446 950.896729,901.294861 
	C945.952332,906.547546 940.452698,911.274109 935.265747,916.302734 
	C928.798401,922.572693 922.582581,929.115234 915.910034,935.155640 
	C911.532227,939.118652 906.613647,942.506470 901.792053,945.948547 
	C898.950806,947.976990 896.701904,951.009155 893.848816,952.489868 
	C890.934387,954.002380 889.753052,957.649048 886.348389,957.965088 
	C882.550354,958.317566 881.716858,963.498108 877.575317,963.093201 
	C876.756470,968.761353 870.498779,966.943359 867.381104,970.228210 
	C865.108643,972.622498 861.337158,976.327515 856.597961,976.077820 
	C855.609863,981.709534 847.730591,978.343628 846.573914,983.755188 
	C841.058838,982.701782 837.291504,987.164246 833.687256,989.487122 
	C829.515259,992.175781 823.289490,991.022278 820.617065,996.553528 
	C820.144165,997.532166 816.132629,996.475098 815.147644,997.589233 
	C811.077454,1002.192688 804.062744,1000.353943 800.119812,1004.939087 
	C799.572510,1005.575500 798.346680,1006.011108 797.488037,1005.935730 
	C791.307556,1005.393127 787.064453,1012.565796 780.462219,1010.152649 
	C777.852783,1015.409607 772.389099,1013.573669 768.260132,1014.823975 
	C762.531372,1016.558716 757.349915,1020.872192 750.757812,1019.104919 
	C745.531616,1025.581665 737.307678,1020.839355 731.473511,1024.119751 
	C722.773804,1029.011230 712.819153,1025.498169 704.104492,1029.025513 
	C697.572449,1031.669434 690.884460,1032.387939 683.972534,1031.998169 
	C671.025696,1031.268311 658.148621,1033.372314 645.216431,1032.980469 
	C629.133301,1032.493408 613.061035,1031.668091 596.958313,1031.934082 
	C594.411011,1031.976318 591.504944,1031.773193 589.359070,1030.598145 
	C583.020996,1027.127563 576.056091,1028.029175 569.378296,1027.071777 
	C566.356995,1026.638672 563.353027,1027.173706 560.548706,1025.041260 
	C556.618713,1022.052734 551.760681,1023.111572 547.216309,1022.996765 
	C545.355286,1022.949646 543.851990,1023.102295 542.252441,1021.084961 
	C540.491333,1018.863831 537.055969,1018.792786 534.052856,1018.990662 
	C530.890930,1019.199036 527.713379,1019.398071 525.663452,1016.191528 
	C524.954773,1015.082886 523.833496,1014.911011 522.604797,1014.990784 
	C515.012878,1015.484131 509.166840,1008.991211 501.327423,1009.759216 
	C499.423950,1009.945679 498.163696,1005.933655 494.787476,1006.000916 
z"/>
<path fill="#FFFFFF" opacity="1.000000" stroke="none" 
	d="
M984.702148,766.743286 
	C981.277649,774.167480 979.108337,782.020813 974.619629,788.185181 
	C971.191528,792.893005 969.462830,798.178162 966.454956,802.810425 
	C961.745544,810.063293 958.448242,818.320496 951.048523,823.892334 
	C948.604065,825.732971 945.162048,827.547180 944.018311,831.021729 
	C943.639465,832.172546 942.767151,831.749084 942.082458,832.028198 
	C939.846863,832.939697 936.585449,832.084167 935.780823,835.602722 
	C935.729675,835.826660 934.900391,835.937622 934.421082,835.989075 
	C927.736450,836.706604 921.237244,838.296204 914.730286,839.927734 
	C912.520447,840.481750 910.337280,839.989075 908.344055,838.210022 
	C906.108276,836.214600 903.012451,836.938538 900.263611,837.040100 
	C896.836243,837.166626 893.999817,836.459229 891.309021,833.987549 
	C888.162964,831.097717 883.251038,831.561646 879.908508,828.174316 
	C877.360962,825.592651 874.267395,823.577148 871.907593,820.594604 
	C869.198669,817.170837 865.625977,814.446228 862.669373,811.198730 
	C858.821228,806.971985 854.763184,802.747070 850.637634,799.037964 
	C846.892029,795.670410 843.440063,791.824036 839.531921,788.545044 
	C836.243835,785.786194 832.891113,782.656555 830.255371,779.264221 
	C826.805115,774.823608 822.287842,771.602661 818.663635,767.396057 
	C813.987732,761.968689 808.674438,757.081299 803.529541,752.070312 
	C799.946716,748.580688 795.552734,745.733154 792.673462,741.763000 
	C789.492432,737.376831 784.909912,734.518616 781.695251,730.154480 
	C780.355408,728.335388 778.563538,725.770020 776.165894,724.730835 
	C773.209290,723.449524 771.253357,720.665527 769.726746,718.627502 
	C767.100464,715.121277 763.210022,713.756714 760.116699,711.489014 
	C758.039429,709.966125 756.421570,707.837036 754.142090,706.468262 
	C747.563843,702.518127 740.611511,698.832947 735.009277,693.724304 
	C730.170166,689.311584 724.423218,685.362305 721.828979,678.651550 
	C720.528564,675.287659 715.923767,673.458191 716.962646,668.822388 
	C711.380066,665.158569 708.695862,658.585999 703.029358,654.985657 
	C699.653687,652.840759 696.644592,650.069580 695.750549,646.128784 
	C694.956726,642.629944 690.326782,641.899109 690.825439,637.339783 
	C691.457397,631.561157 693.090088,629.143372 698.847168,630.140320 
	C702.468018,630.767334 705.769226,630.658691 709.370117,630.180786 
	C713.010010,629.697632 716.841553,630.940491 720.591064,630.955200 
	C743.413330,631.044922 766.236145,631.000000 789.058777,631.000000 
	C832.200439,631.000000 875.342163,631.000000 918.483826,631.000000 
	C932.139343,631.000000 945.794922,630.986267 959.450317,631.016907 
	C961.212402,631.020874 963.120239,630.500793 964.641235,631.907104 
	C967.595764,634.638672 971.200562,634.679871 974.962097,635.272766 
	C978.814941,635.880188 982.906250,638.554138 985.613403,640.974548 
	C989.388611,644.349854 993.630676,647.404907 997.249573,651.114258 
	C999.955627,653.888123 1001.531982,657.275818 1003.109985,660.140564 
	C1006.407654,666.127197 1010.046265,672.351624 1009.156860,680.074463 
	C1008.369751,686.909180 1009.185791,693.887573 1008.091614,700.791077 
	C1007.571289,704.073608 1004.904358,706.371643 1004.919556,709.860168 
	C1004.951294,717.169922 1000.979675,723.522827 999.418396,730.533691 
	C997.471680,739.275208 993.015503,747.463745 989.579285,755.864929 
	C988.122742,759.426025 986.504395,762.920898 984.702148,766.743286 
z"/>
<path fill="#FFFFFF" opacity="1.000000" stroke="none" 
	d="
M529.661804,522.156189 
	C539.462341,531.980286 548.395142,542.122009 557.712830,551.884216 
	C562.435791,556.832458 567.749817,561.466431 572.385986,566.443298 
	C577.240662,571.654724 582.702637,576.315308 587.332703,581.831360 
	C590.196472,585.243164 593.775452,588.731079 597.777405,591.295959 
	C599.607056,592.468567 602.098694,594.154907 601.210205,595.938599 
	C599.892517,598.583923 598.584595,602.122253 594.364502,602.026489 
	C589.375854,601.913208 584.382690,602.000000 579.391479,602.000000 
	C498.112518,602.000000 416.833527,602.002075 335.554565,601.992798 
	C332.165222,601.992432 328.944702,602.085449 325.672089,600.154541 
	C321.639496,597.775269 316.704498,597.775024 312.271545,595.473999 
	C306.648376,592.555054 301.856598,588.955750 297.326874,584.782288 
	C294.512177,582.188965 291.313477,579.752136 289.312286,576.595215 
	C286.063751,571.470703 281.485382,566.697632 282.058838,559.911682 
	C282.210388,558.118408 281.520142,556.586487 280.912842,555.219177 
	C276.716034,545.771057 283.532776,536.897766 282.135651,527.647339 
	C287.155701,521.560913 286.711823,513.496765 289.259338,506.509125 
	C292.519714,497.566254 295.411530,488.391693 299.124146,479.591888 
	C301.079407,474.957397 301.838470,469.510315 306.310150,466.157654 
	C307.270447,465.437622 307.034149,464.344299 306.977753,463.390442 
	C306.837646,461.020508 306.799530,458.691833 309.762299,458.060913 
	C311.239349,457.746368 311.005371,456.743866 310.983063,455.822998 
	C310.908203,452.727478 311.525513,450.153320 314.653351,448.525085 
	C315.483093,448.093140 315.844574,446.255768 315.937378,445.027161 
	C316.095032,442.939514 315.489441,440.612885 318.800568,440.575806 
	C319.132385,440.572083 319.745392,439.891296 319.742004,439.529297 
	C319.665802,431.458832 325.954681,426.248169 329.474640,420.107147 
	C333.284241,413.460846 338.096252,406.841400 345.390930,402.196136 
	C348.588562,400.159882 352.990723,398.816101 355.554260,395.303650 
	C356.122345,394.525330 357.622314,393.957214 359.079559,393.954712 
	C367.411621,393.940369 375.611603,392.752991 384.112823,393.637909 
	C392.387177,394.499176 398.954926,396.833282 405.874481,401.550781 
	C411.739929,405.549622 417.101257,409.785065 421.601715,415.019470 
	C426.377838,420.574615 431.474915,425.931549 436.502136,431.136078 
	C439.900116,434.653992 443.939209,438.282379 447.547333,441.748718 
	C450.956787,445.024139 455.501129,447.778748 457.497650,452.731720 
	C458.307281,454.740265 461.025757,456.078613 462.669342,457.443207 
	C475.601746,468.180511 486.752960,480.756256 499.223297,491.952881 
	C509.754639,501.408539 519.367981,511.886566 529.661804,522.156189 
z"/>
<path fill="#FFFFFF" opacity="1.000000" stroke="none" 
	d="
M834.189575,296.691040 
	C838.126770,300.977844 843.603943,302.321655 847.554688,306.071381 
	C855.935425,314.025726 864.878113,321.160004 867.320557,333.707001 
	C868.265564,338.561401 870.130127,343.179901 870.093506,348.354889 
	C870.043091,355.481842 866.562561,361.602417 864.696716,368.148285 
	C863.762695,371.425079 861.956238,374.892426 859.798218,378.070099 
	C856.236694,383.314636 851.544556,387.366791 847.541687,392.101624 
	C844.082947,396.192841 840.320190,400.376068 836.319824,403.511505 
	C832.095581,406.822510 829.835388,411.749786 824.842041,414.624939 
	C821.380615,416.618011 818.218994,420.985809 815.113098,424.470306 
	C811.832153,428.151337 807.992310,431.341492 804.786743,435.080536 
	C801.259338,439.195007 796.186096,441.836334 793.827209,447.132233 
	C793.188232,448.566681 790.656433,448.780121 789.240784,450.227509 
	C783.978516,455.607819 777.856934,460.273071 773.282959,466.158813 
	C770.002136,470.380554 765.639038,473.353943 762.264465,477.483215 
	C759.471069,480.901184 755.581848,484.245636 751.979980,487.350342 
	C748.391235,490.443848 744.871216,494.087402 741.605042,497.767273 
	C738.403259,501.374481 734.886475,504.702118 731.508545,508.153046 
	C727.604919,512.141113 723.670471,516.176880 719.664673,519.959229 
	C717.560486,521.946045 715.625732,524.563660 712.949097,526.412476 
	C709.297852,528.934509 705.988708,532.765747 703.143616,536.481689 
	C701.314453,538.870667 698.860596,540.499695 697.080566,542.905518 
	C695.050415,545.649536 691.918213,547.622314 690.102905,550.465210 
	C688.958130,552.258179 686.999023,552.425354 685.640869,554.006042 
	C682.144470,558.075378 685.207764,562.473145 683.321472,566.558289 
	C681.911011,569.612793 680.984314,570.392883 678.001648,569.664856 
	C678.234070,566.968811 681.888916,565.991150 681.106201,562.715942 
	C680.614319,560.657715 679.148193,560.410828 678.509338,561.350586 
	C677.169495,563.321777 674.002319,564.485718 673.749268,565.355286 
	C672.750732,568.786011 670.241943,569.505859 667.681580,569.916382 
	C665.896057,570.202759 666.658325,574.952454 663.640442,572.074402 
	C661.270203,569.813904 659.170837,567.806580 659.606140,563.614258 
	C660.263000,557.287292 660.903931,550.796631 659.144653,544.402527 
	C658.351196,541.518555 660.103760,538.725647 660.098572,535.706238 
	C659.972412,462.063904 659.939758,388.421173 660.088135,314.778900 
	C660.103882,306.945801 660.260254,298.813293 662.338379,291.374847 
	C664.135254,284.943268 667.866760,278.821381 672.143250,273.310120 
	C677.360901,266.586029 683.864685,261.402039 690.810181,256.628418 
	C692.516968,255.455322 694.285828,256.065460 695.998596,255.641144 
	C701.860596,254.188828 706.886230,249.696274 713.510254,250.962585 
	C718.172424,251.853867 722.895081,251.241837 727.361755,254.418991 
	C730.041809,256.325378 734.723999,255.160248 738.322571,256.088379 
	C744.741211,257.743866 750.988342,260.011047 757.431763,261.664062 
	C759.739380,262.256073 762.417419,263.366272 764.991394,264.212036 
	C767.619629,265.075653 770.749451,266.801453 772.870300,267.384949 
	C778.401794,268.906677 783.433044,271.662811 788.951294,273.106812 
	C793.563049,274.313568 797.647400,277.094360 802.058533,278.981201 
	C807.848511,281.457764 813.484070,284.506256 819.185913,287.306488 
	C824.296265,289.816223 828.903015,293.539001 834.189575,296.691040 
z"/>
<path fill="#FFFFFF" opacity="1.000000" stroke="none" 
	d="
M541.000000,631.000000 
	C555.492676,631.000000 569.486633,631.102905 583.477356,630.936829 
	C587.638245,630.887451 591.705933,629.202087 595.989685,630.888306 
	C597.605103,631.524231 599.961487,630.864990 599.930359,633.482849 
	C599.895447,636.416992 600.857727,639.504883 597.954712,642.036133 
	C593.784058,645.672607 589.757141,649.530090 586.105896,653.677917 
	C584.700684,655.274170 582.724915,657.146606 581.528137,658.076660 
	C577.557129,661.162231 575.130005,665.822144 570.581177,668.231934 
	C568.382935,669.396545 567.293030,672.044250 565.499512,673.826538 
	C561.365051,677.934998 556.583679,681.643005 553.112122,686.185120 
	C548.700073,691.957581 542.804810,696.105469 538.221985,701.693542 
	C535.389526,705.147339 531.661804,708.664185 527.523682,711.254944 
	C525.536560,712.499146 524.015442,714.827942 522.727966,716.482849 
	C519.652344,720.436157 515.448914,723.196655 512.345337,727.200317 
	C509.584381,730.761902 505.396576,734.152344 501.641693,737.378479 
	C498.244629,740.297302 495.129852,743.804810 492.107452,747.204834 
	C488.463470,751.304138 484.291718,754.808960 480.538422,758.763428 
	C475.809662,763.745667 471.008728,768.687683 465.912506,773.285217 
	C460.155884,778.478394 455.147675,784.404358 449.432251,789.665710 
	C446.068481,792.762207 441.814697,795.761536 439.919281,800.404480 
	C438.961456,802.750793 436.285889,802.820068 434.616486,804.597412 
	C431.311676,808.115845 427.986359,811.921753 424.465179,815.328308 
	C422.371216,817.354126 419.802002,819.478394 417.689087,821.474915 
	C415.173279,823.851990 413.078705,827.029907 408.888641,828.485229 
	C405.024475,829.827393 401.076965,832.613953 397.102448,834.654480 
	C397.004059,834.705017 397.061951,835.022583 396.958527,835.106323 
	C395.256866,836.483398 371.951813,841.020935 370.528381,839.662659 
	C366.693970,836.003540 362.170471,836.968506 357.806732,837.055603 
	C352.550964,837.160522 350.158539,832.508057 346.396210,830.238953 
	C345.338440,829.600952 344.471069,828.209412 342.706360,827.797058 
	C340.838867,827.360657 339.211395,826.115479 338.054077,824.400391 
	C333.114746,817.080872 327.986053,809.904114 323.381775,802.338440 
	C321.796356,799.733337 319.569885,797.836426 319.974274,794.479126 
	C320.089813,793.520020 319.624725,793.006775 318.548859,792.959900 
	C317.948181,792.933655 316.856323,792.528137 316.849152,792.269653 
	C316.727173,787.863098 314.300781,784.502136 312.048248,781.022095 
	C311.656372,780.416687 312.221344,778.953857 311.795288,778.645264 
	C307.390564,775.455688 307.603180,769.730469 304.540619,765.722717 
	C302.506042,763.060242 301.540771,759.485657 300.110687,756.325134 
	C296.972168,749.388855 293.691833,742.278931 291.591644,735.169312 
	C289.514801,728.138672 285.416138,721.278320 286.101166,713.566833 
	C286.383240,710.391357 283.446869,709.408752 282.747772,706.740173 
	C281.484070,701.916565 283.492188,696.666626 280.917480,692.331848 
	C277.331726,686.294983 281.391235,680.812744 281.361694,675.094604 
	C281.318542,666.742859 285.894226,660.334717 290.260620,654.203430 
	C293.003937,650.351257 297.335419,647.340393 301.038177,644.052429 
	C303.771637,641.625183 305.858856,637.675476 310.675049,638.946594 
	C311.695068,639.215820 312.001343,638.361267 312.026947,637.396484 
	C312.062195,636.067383 312.881561,634.967224 314.128571,635.074951 
	C322.099976,635.763245 328.602814,628.796448 336.404388,630.333069 
	C343.531830,631.737122 350.567596,630.741394 357.564636,630.784241 
	C418.541229,631.157959 479.521118,631.000000 541.000000,631.000000 
z"/>
<path fill="#FFFFFF" opacity="1.000000" stroke="none" 
	d="
M987.250183,471.740631 
	C989.558289,476.734589 992.251648,481.280151 993.461243,486.191162 
	C995.174561,493.147491 1000.864197,498.711823 1000.168884,506.515045 
	C1000.043884,507.917664 1000.744995,509.888672 1002.460266,511.342346 
	C1005.673462,514.065552 1003.201660,518.487122 1004.884399,522.012817 
	C1010.384338,533.537109 1008.840637,545.979980 1009.033936,558.187439 
	C1009.075256,560.794495 1008.551086,563.071960 1006.619568,564.853394 
	C1003.652283,567.589966 1004.223816,571.942566 1001.266602,575.083435 
	C998.053040,578.496582 995.690735,582.677429 991.867432,585.812805 
	C986.983521,589.818054 981.471497,592.384521 975.905701,595.152344 
	C965.414246,600.369629 960.403687,602.000000 949.620911,602.000000 
	C884.294128,602.000000 818.967407,602.000000 753.640625,602.000000 
	C743.822205,602.000000 733.936157,601.301025 724.208984,602.243042 
	C717.603271,602.882812 711.113342,601.592102 704.434204,602.546204 
	C700.631836,603.089294 694.627380,603.962830 691.502930,598.960693 
	C689.790955,596.219849 688.628601,593.454773 693.165894,591.926636 
	C695.893738,591.007874 696.690002,587.860657 698.179871,585.879272 
	C704.282532,577.763367 712.307983,571.955872 719.543640,565.174194 
	C724.582275,560.451599 729.395325,554.857056 734.181580,549.564758 
	C742.282898,540.606750 751.726990,532.823792 759.469055,523.592712 
	C765.647827,516.225769 773.055359,510.234955 779.639099,503.369049 
	C785.199402,497.570526 791.514221,492.198639 797.289062,486.564178 
	C802.377380,481.599518 808.152283,477.142822 812.440857,471.241302 
	C815.248779,467.377319 819.758240,465.119141 823.266174,461.896637 
	C826.928223,458.532745 829.825439,454.303711 833.625366,451.134399 
	C836.046326,449.115265 837.039795,445.772247 840.729675,444.674347 
	C842.341492,444.194763 843.927917,441.315826 845.543274,439.561615 
	C848.221436,436.653320 849.881775,433.105988 854.194031,431.661469 
	C855.450745,431.240448 856.804199,428.522034 858.124329,426.919891 
	C862.611084,421.474762 867.466858,416.384521 872.310730,411.308350 
	C877.902649,405.448364 884.195923,400.756226 891.863770,397.260193 
	C902.558472,392.384155 913.172302,393.726685 924.151428,393.576996 
	C930.789124,393.486481 935.103821,397.998444 940.989319,398.456940 
	C943.882874,398.682404 944.420776,401.658478 946.105957,403.201141 
	C953.285767,409.773895 959.384521,417.143829 963.433777,426.391937 
	C964.660645,429.193817 967.062744,432.471527 968.738831,435.497162 
	C972.049744,441.473877 976.676453,446.637512 979.104431,453.172333 
	C981.412231,459.383728 984.325745,465.370087 987.250183,471.740631 
z"/>
<path fill="#FFFFFF" opacity="1.000000" stroke="none" 
	d="
M429.704254,377.211609 
	C423.320038,366.984039 419.807220,356.235657 420.026154,344.466553 
	C420.219696,334.064697 425.069946,325.476074 430.557800,316.973267 
	C435.272278,309.668671 442.871002,305.589172 449.118469,300.300385 
	C453.436340,296.645081 459.039307,292.946655 465.088440,290.863312 
	C469.428772,289.368408 473.220703,286.337677 477.364014,284.198730 
	C481.621246,282.001007 486.031494,280.101685 490.329041,277.979126 
	C492.761322,276.777802 496.388580,277.829041 497.564545,274.186951 
	C497.619232,274.017517 498.170410,273.911194 498.477966,273.935089 
	C504.113403,274.372803 507.748901,268.751099 513.287537,269.021637 
	C516.691406,269.187927 517.964600,265.111603 520.929504,265.084290 
	C528.632568,265.013306 534.648804,257.990295 542.771545,259.987885 
	C548.131714,254.364075 555.960327,257.266357 561.780823,254.613190 
	C567.054077,252.209518 572.006592,250.957397 577.543030,251.013382 
	C582.086243,251.059311 586.727600,250.866425 590.214783,254.663193 
	C590.408386,254.873962 590.827881,254.979965 591.135742,254.967957 
	C596.881836,254.743530 600.661743,259.217896 605.440430,261.266235 
	C607.662720,262.218781 609.928894,264.621185 611.862183,266.641571 
	C615.761597,270.716461 618.478027,275.665710 621.576843,280.330078 
	C625.315186,285.957153 626.853943,292.142700 629.553467,297.988190 
	C630.303650,299.612610 629.977661,301.260468 629.978088,302.888947 
	C630.002930,389.376587 630.001282,475.864227 629.991821,562.351868 
	C629.991638,564.294006 630.349426,566.312744 629.003845,568.039734 
	C627.713867,569.695435 626.474182,572.568848 624.376831,571.774353 
	C622.028259,570.884827 618.380859,570.311707 618.104309,566.893738 
	C617.852173,563.777161 614.750977,563.910950 613.298218,562.421204 
	C609.738586,558.771118 606.016479,554.985474 602.468079,551.362183 
	C598.931396,547.750793 594.689331,544.599915 591.795105,540.160828 
	C590.624023,538.364685 588.183899,537.106628 586.534058,535.248901 
	C582.756592,530.995789 578.669617,526.986938 574.733032,522.911133 
	C570.143677,518.159424 565.195190,513.615173 560.349365,509.038025 
	C555.078125,504.058929 549.756348,499.130249 544.588989,494.045105 
	C539.293823,488.834198 533.466553,483.957947 528.710449,478.472900 
	C522.603943,471.430542 514.936768,465.901337 509.718719,457.923767 
	C507.530884,454.578888 503.250153,452.385345 500.386963,449.088043 
	C495.114746,443.016541 488.749054,438.044861 483.625122,431.702759 
	C480.839050,428.254395 476.381958,425.934845 473.415802,422.161499 
	C468.742462,416.216370 462.607300,411.669464 457.617737,405.892822 
	C454.034363,401.744141 449.471008,397.877625 445.109253,394.135345 
	C439.414581,389.249390 434.689941,383.333099 429.704254,377.211609 
z"/>
<path fill="#FFFFFF" opacity="1.000000" stroke="none" 
	d="
M660.000000,719.000000 
	C660.000000,703.004395 660.000732,687.508789 659.998596,672.013184 
	C659.998413,670.680969 660.441101,669.102661 659.885986,668.060608 
	C657.840637,664.221008 659.824890,662.316589 662.982910,661.041504 
	C665.991699,659.826843 669.225830,660.186096 671.126709,662.767029 
	C675.394104,668.561096 680.996460,673.186707 685.328125,678.663269 
	C688.538391,682.722107 692.843201,685.811707 695.801208,690.318298 
	C697.457642,692.842102 700.944153,695.768616 703.826477,698.260254 
	C707.007141,701.009888 709.487305,704.506470 712.437134,707.234802 
	C715.837097,710.379333 719.308350,713.461060 722.570618,716.817871 
	C732.400879,726.933350 743.340576,735.877075 753.183716,746.029053 
	C759.303589,752.340942 765.817688,758.351685 772.066223,764.585815 
	C781.412720,773.910889 790.739990,783.257751 799.928223,792.738098 
	C805.438538,798.423523 810.091431,805.097839 816.192261,810.007263 
	C821.943665,814.635498 826.570496,820.236328 831.515320,825.453796 
	C837.714905,831.995178 845.556641,837.054138 850.083679,845.190674 
	C851.032227,846.895569 853.326355,846.312744 854.980774,848.103271 
	C862.715210,856.473877 865.876526,867.122253 869.206787,877.269165 
	C871.209656,883.371399 873.578491,891.086853 867.941956,897.838684 
	C865.502808,900.760437 864.751282,905.140747 863.411865,908.766968 
	C861.114685,914.985535 856.105896,918.437744 852.135376,922.823364 
	C848.526550,926.809509 843.196045,929.264221 839.000061,932.488708 
	C833.523499,936.697083 827.165466,939.290100 821.564697,943.085938 
	C818.113403,945.425110 813.609802,948.136169 808.728516,949.297607 
	C805.089478,950.163513 800.778442,952.235657 798.162842,954.404968 
	C793.712463,958.095886 788.206421,958.371582 783.567688,960.362671 
	C778.343872,962.604919 773.081543,966.515381 766.554260,966.145630 
	C762.694763,965.927063 759.583862,969.106995 755.855774,970.324402 
	C746.322510,973.437439 736.475037,975.280579 726.928040,978.329346 
	C718.642822,980.975281 709.218384,981.356995 701.244141,978.624146 
	C688.591858,974.288147 676.941895,967.339905 669.197632,955.575073 
	C663.725037,947.261230 661.210754,938.237976 660.904053,928.199280 
	C658.778564,858.637756 660.647156,789.063965 660.000000,719.000000 
z"/>
<path fill="#FFFFFF" opacity="1.000000" stroke="none" 
	d="
M581.454712,979.226257 
	C572.623047,980.298157 564.365295,980.313843 556.818176,975.447998 
	C555.725098,974.743347 553.914551,974.914307 552.468750,975.044067 
	C549.614136,975.300293 546.742188,974.943115 544.391785,973.619385 
	C541.506531,971.994446 538.713196,970.756897 535.364075,970.707153 
	C529.182190,970.615295 524.473511,965.001892 517.978455,965.976013 
	C514.735596,960.101257 507.517944,962.831787 502.929718,958.942871 
	C499.997955,956.457947 495.064667,956.146362 491.230682,954.088928 
	C485.781189,951.164551 480.261108,947.757019 474.670654,945.879272 
	C469.880737,944.270447 466.506653,940.390259 461.180878,939.556458 
	C457.844055,939.034058 454.652374,935.212036 451.089661,933.244385 
	C447.383087,931.197327 444.123138,928.357910 440.509247,926.121338 
	C437.771118,924.426880 435.857178,921.900696 434.058563,919.508972 
	C429.156952,912.990906 423.893646,906.666504 421.772705,898.399048 
	C420.287292,892.608826 419.346802,886.760925 420.158875,880.955139 
	C421.153259,873.845947 424.115356,867.379883 427.240234,860.783508 
	C431.225922,852.369995 437.951996,846.942139 443.923889,840.590088 
	C451.522278,832.508057 459.207764,824.505493 466.968018,816.578613 
	C475.145813,808.225281 483.747101,800.265991 491.598297,791.621338 
	C496.261108,786.487244 501.058655,781.510742 506.084045,776.779114 
	C513.037598,770.232117 519.563354,763.244080 526.368286,756.562927 
	C531.729980,751.298706 537.179443,745.919556 542.513367,740.620972 
	C547.883118,735.286682 553.178040,729.666687 559.205017,724.904358 
	C562.696655,722.145386 565.773315,718.828308 568.846252,715.582092 
	C571.740906,712.524231 574.757812,709.712708 578.129639,707.129456 
	C581.351318,704.661499 583.629944,700.995361 586.487183,698.013062 
	C595.835938,688.255005 605.283752,678.591797 614.628296,668.829712 
	C616.042786,667.351990 617.602295,666.162292 618.218262,663.736145 
	C619.094543,660.284424 622.611755,660.746643 625.366882,661.070435 
	C627.838257,661.360840 629.376770,663.161255 629.947510,665.545044 
	C630.211792,666.648499 629.999634,667.866455 629.999634,669.032532 
	C630.000000,755.654968 630.031067,842.277527 629.923462,928.899780 
	C629.916931,934.149048 630.118958,939.773193 625.644714,943.909485 
	C625.319458,944.210266 625.167480,944.737732 625.021851,945.187927 
	C621.526123,955.996155 615.061951,964.432983 605.667114,970.938843 
	C601.517578,973.812378 596.375977,973.769104 592.565125,976.220398 
	C588.988037,978.521362 585.679749,979.085266 581.454712,979.226257 
z"/>
</svg>